<svg width="69" height="155" viewBox="0 0 69 155" fill="none" xmlns="http://www.w3.org/2000/svg">
<path d="M26.312 130.044C26.312 130.044 27.8836 130.227 29.0266 131.946C30.4911 134.141 30.9912 136.482 30.0625 138.42C29.1338 140.322 28.9195 140.798 28.7409 141.822C28.6337 142.444 29.2052 144.602 29.3838 145.077C29.6696 146.065 28.9195 146.175 28.9195 146.175C29.2409 146.87 28.8837 147.345 28.7051 147.345C27.8122 147.235 27.2764 144.492 26.7049 143.322C26.7049 143.322 27.5978 146.54 27.7407 148.077C27.8479 149.503 26.4906 149.393 26.0976 147.857C26.0976 147.857 24.9904 147.455 24.526 146.028C24.0617 144.602 23.3473 141.749 23.5973 139.993C23.8473 138.237 24.776 134.141 24.776 134.141L26.312 130.044Z" fill="#FAC2A8"/>
<path d="M25.2046 136.59C25.4189 137.212 25.5975 137.87 25.7761 138.529C25.919 139.187 26.0618 139.845 26.0976 140.54C26.0976 140.723 26.0976 140.869 26.0618 141.052C26.0261 141.199 26.0261 141.345 26.0618 141.528C26.0976 141.82 26.2404 142.113 26.419 142.333C26.6334 142.552 26.9191 142.662 27.1334 142.515C27.2406 142.442 27.3477 142.333 27.3834 142.223C27.4549 142.113 27.4906 141.967 27.4906 141.82C27.5263 141.491 27.4906 141.162 27.4906 140.833C27.4906 140.504 27.4906 140.138 27.562 139.809C27.6692 139.114 27.955 138.455 28.4193 137.943C28.6336 137.687 28.8836 137.468 29.0622 137.175C29.2408 136.919 29.3837 136.626 29.4552 136.297C29.6337 135.675 29.5266 134.981 29.2051 134.395C29.598 134.944 29.7766 135.639 29.6337 136.334C29.5266 137.029 29.0622 137.614 28.6336 138.09C28.2407 138.602 27.9907 139.187 27.8835 139.845C27.7764 140.467 27.8478 141.126 27.8121 141.82C27.7764 142.003 27.7764 142.186 27.6692 142.369C27.562 142.515 27.4549 142.698 27.2763 142.771C27.0977 142.881 26.8834 142.881 26.7048 142.808C26.5262 142.735 26.3476 142.625 26.2404 142.515C25.9904 142.259 25.8475 141.894 25.8118 141.528C25.7761 141.345 25.8118 141.162 25.8475 140.979C25.8832 140.833 25.8833 140.65 25.8833 140.504C25.8833 139.845 25.7761 139.187 25.6689 138.529C25.5261 137.907 25.3475 137.248 25.2046 136.59Z" fill="#DC918B"/>
<path d="M25.4552 141.383C25.4909 141.969 25.5266 142.517 25.598 143.066C25.6695 143.615 25.8123 144.163 25.9909 144.675C26.0624 144.931 26.2053 145.187 26.3124 145.443C26.4196 145.7 26.5624 145.919 26.7053 146.212C26.8125 146.468 26.8839 146.833 26.741 147.089C26.6339 147.382 26.3838 147.565 26.0981 147.675C26.3481 147.528 26.5624 147.309 26.6339 147.053C26.7053 146.797 26.6339 146.541 26.5267 146.285C26.4196 146.065 26.241 145.809 26.0981 145.553C25.9552 145.297 25.8481 145.041 25.7409 144.748C25.5266 144.2 25.3837 143.651 25.3123 143.066C25.2051 142.554 25.2051 141.932 25.4552 141.383Z" fill="#DC918B"/>
<path d="M28.1684 142.08C28.1327 142.409 28.1684 142.738 28.2756 143.031C28.3113 143.177 28.4184 143.287 28.4899 143.433C28.5613 143.579 28.6327 143.762 28.6685 143.909C28.8471 144.567 28.9542 145.225 28.9899 145.884C28.8113 145.262 28.6685 144.604 28.4184 144.018C28.347 143.872 28.2756 143.726 28.2041 143.616C28.1327 143.47 28.0612 143.287 28.0612 143.104C28.0255 142.738 28.0612 142.409 28.1684 142.08Z" fill="#DC918B"/>
<path d="M24.7052 130.044L23.8123 134.067C23.8123 134.067 28.6343 133.555 31.4918 136.811L32.2776 130.885C32.3134 130.885 30.4203 129.203 24.7052 130.044Z" fill="#EF3F54"/>
<path d="M24.7038 130.044C24.7038 130.044 23.2036 125.07 24.6681 121.448C26.1326 117.827 28.24 101.733 29.5973 95.7343C30.3117 92.5887 33.2764 88.4188 35.0623 87.7604C36.4911 87.2118 36.884 102.867 37.1698 104.879C35.4195 110.036 32.6692 117.425 32.6692 118.083C32.6692 123.789 30.026 131.507 30.026 131.507C30.026 131.507 27.4185 130.446 24.7038 130.044Z" fill="#BD1A3B"/>
<path d="M31.4921 116.071L30.3491 141.273C30.3491 141.273 38.3145 145.552 44.601 145.845C49.1373 168.779 48.0657 170.352 48.4586 172.547C48.673 173.644 49.8517 191.86 49.7445 192.518C49.6017 193.176 49.4945 194.31 49.6731 195.078C49.816 195.664 49.4588 198.7 49.4588 198.7C49.4588 198.7 51.2804 199.248 53.6022 199.504C55.9239 199.76 58.9243 198.919 59.8173 198.919C59.8173 198.919 59.5672 197.31 59.8173 196.285C60.0316 195.444 59.2815 194.383 59.5672 193.469C59.8173 192.555 60.1745 187.69 60.1745 182.459C60.1745 176.204 59.8173 171.083 59.1743 169.218C59.4244 152.392 59.2101 142.59 59.1743 141.712C59.0672 137.798 58.5671 134.872 58.5671 133.811C58.5671 132.75 57.7813 115.888 57.7813 115.888L31.4921 116.071Z" fill="#474E64"/>
<path d="M40.7063 136.408C40.8135 137.469 40.9206 138.566 41.0278 139.663C41.135 140.761 41.2064 141.821 41.2778 142.919V143.138H41.0635H38.9204H38.7418V142.955C38.7061 142.004 38.6703 141.053 38.6346 140.102C38.5989 139.151 38.5989 138.2 38.5632 137.249L38.6703 137.359C38.1346 137.286 37.6345 137.212 37.0987 137.139H37.063V137.103C37.1344 136.81 37.2416 136.554 37.313 136.261C37.2416 136.554 37.2059 136.847 37.1344 137.103L37.0987 137.03C37.6345 137.066 38.1703 137.103 38.6703 137.139H38.7775V137.249C38.8489 138.2 38.9204 139.151 38.9918 140.066C39.0633 141.017 39.099 141.968 39.1704 142.882L38.9561 142.699H41.0992L40.9206 142.919C40.8849 141.821 40.8135 140.761 40.8135 139.663C40.7063 138.566 40.7063 137.505 40.7063 136.408Z" fill="#343948"/>
<path d="M59.174 131.104L59.1382 134.03C59.1382 134.03 49.1012 135.896 47.351 136.006C45.6007 136.079 44.6006 133.006 44.6006 133.006L46.4223 131.287L59.174 131.104Z" fill="#EF3F54"/>
<path d="M30.2048 130.302L29.8477 133.229C29.8477 133.229 36.2056 135.387 37.9201 135.679C39.6347 136.009 41.0634 133.119 41.0634 133.119L39.4918 131.18L30.2048 130.302Z" fill="#EF3F54"/>
<path d="M30.3491 141.236C30.3491 141.236 31.2064 161.756 31.2064 162.671C31.2064 163.585 31.8493 193.469 31.5993 194.127C31.3493 194.786 30.9563 198.041 30.9563 198.041C30.9563 198.041 33.6353 199.138 35.3855 199.248C36.9929 199.358 37.7787 199.468 42.1721 198.407C41.8149 195.7 41.8506 192.664 41.8506 191.75C41.8506 190.835 42.7793 180.411 42.7793 178.948C42.7793 177.484 43.5294 168.998 42.6365 165.341C42.3507 164.243 43.4223 145.699 43.4223 145.699C43.4223 145.699 37.1 144.601 30.3491 141.236Z" fill="#343948"/>
<path d="M29.5989 134.174V137.429C29.5989 137.429 34.2066 140.868 47.3512 140.209C60.4958 139.551 59.4242 138.783 59.4242 138.783L59.1742 133.26L29.5989 134.174Z" fill="#31374C"/>
<path d="M59.8887 89.0386C59.8887 89.0386 57.8884 88.0876 54.0665 86.9902C51.5662 86.2953 49.4588 85.8198 46.6727 85.8198C41.9935 85.7832 36.6356 87.2463 35.1355 87.7218C33.5638 88.2339 31.7779 93.94 31.4207 100.012C31.1349 104.73 30.5634 111.644 30.1348 119.764C29.8848 124.263 28.2774 131.505 29.6347 134.175C46.3155 139.406 59.2101 134.029 59.2101 134.029C61.0317 130.554 59.2815 126.055 60.9603 105.901C61.7461 96.0615 59.8887 89.0386 59.8887 89.0386Z" fill="#BD1A3B"/>
<path d="M35.0994 87.7593C34.6707 87.9422 34.385 88.3445 34.1707 88.7103C33.9206 89.1126 33.742 89.515 33.5634 89.9539C33.2063 90.7952 32.9562 91.6731 32.7062 92.5875C32.2418 94.3798 31.9561 96.1721 31.7418 98.001C31.6346 98.9154 31.5989 99.8299 31.5275 100.744L31.3489 103.524C31.2417 105.353 31.0988 107.219 30.956 109.047C30.6702 112.742 30.4202 116.436 30.063 120.094C29.7415 123.788 29.3843 127.446 28.9557 131.14L30.5273 109.011L30.9202 103.488L31.0988 100.708C31.1703 99.7933 31.206 98.8423 31.3489 97.9278C31.5632 96.099 31.9204 94.2701 32.4562 92.4778C32.7062 91.5999 33.0277 90.7221 33.4206 89.8808C33.5992 89.4784 33.8492 89.0395 34.0992 88.6737C34.3493 88.2714 34.6707 87.9056 35.0994 87.7593Z" fill="#E0363C"/>
<path d="M51.3157 75.1392L40.4572 75.4684C40.4572 75.4684 40.9929 81.0647 41.0287 88.746C41.0287 90.209 41.8145 92.2574 41.8145 92.2574C41.8145 92.2574 46.5294 91.6356 51.3514 86.1855C50.9943 84.759 51.3157 75.1392 51.3157 75.1392Z" fill="#DC918B"/>
<path d="M40.7428 136.081C39.5283 119.036 42.7788 95.6264 43.0288 93.9072L41.6715 92.3344L41.9929 92.0417L43.4931 93.7609V93.8706C43.4574 94.1267 39.957 118.487 41.2071 136.045L40.7428 136.081Z" fill="#E0363C"/>
<path d="M20.5611 57.84C20.5611 57.84 17.7036 48.2566 13.3459 52.3533C8.98817 56.45 15.2747 68.9596 22.2756 65.7773C22.2756 65.8139 23.9187 64.3874 20.5611 57.84Z" fill="#F7AB8D"/>
<path d="M10.8098 22.4694C5.52342 24.1154 8.20235 34.5034 9.27392 37.2467C13.2387 47.4884 14.0245 56.5962 17.4536 59.8516C17.4536 59.8516 19.4181 19.7992 10.8098 22.4694Z" fill="#2B2E3A"/>
<path d="M66.2087 55.4629C66.173 55.9018 65.0657 67.3506 58.2791 66.1435L58.8148 59.0109L66.2087 55.4629Z" fill="#2B2E3A"/>
<path d="M59.2806 18.1549C59.2806 18.1549 19.2753 13.1804 13.3103 25.251C8.63108 34.688 13.9889 43.7958 16.5607 55.6103C18.4895 64.4255 18.811 70.6071 19.6683 72.0702C23.383 78.6542 32.8486 84.5066 37.2777 84.3603C47.0647 84.0311 55.4587 75.5817 58.5305 69.4001C60.245 65.8886 60.7094 55.208 59.8878 42.6619C59.2092 31.9081 60.9594 22.1785 59.2806 18.1549Z" fill="#FAC2A8"/>
<path d="M41.5417 44.6084C42.2161 44.4568 42.6464 43.7901 42.5026 43.1192C42.3589 42.4483 41.6956 42.0273 41.0212 42.1788C40.3468 42.3303 39.9166 42.997 40.0603 43.6679C40.204 44.3388 40.8673 44.7599 41.5417 44.6084Z" fill="#31374C"/>
<path d="M41.683 43.1318C41.8747 43.0842 41.9924 42.8865 41.9459 42.6904C41.8995 42.4942 41.7064 42.3739 41.5147 42.4215C41.323 42.4692 41.2053 42.6668 41.2518 42.863C41.2983 43.0591 41.4913 43.1795 41.683 43.1318Z" fill="white"/>
<path opacity="0.2" d="M18.0605 52.6452C18.0605 53.523 19.4893 54.218 21.2395 54.1814C22.9897 54.1448 24.3828 53.4133 24.3828 52.5354C24.3828 51.6576 22.954 50.9626 21.2038 50.9992C19.4536 51.0358 18.0605 51.7673 18.0605 52.6452Z" fill="#EF3F54"/>
<path opacity="0.2" d="M40.0634 49.5727C40.4563 50.4871 42.2779 50.5603 44.0996 49.6824C45.9213 48.8412 47.0643 47.4146 46.6714 46.5002C46.2785 45.5858 44.4568 45.5126 42.6351 46.3905C40.7777 47.2318 39.6347 48.6583 40.0634 49.5727Z" fill="#EF3F54"/>
<path d="M21.7911 48.5561C22.4655 48.4045 22.8957 47.7378 22.752 47.067C22.6083 46.3961 21.945 45.975 21.2706 46.1265C20.5962 46.2781 20.166 46.9447 20.3097 47.6156C20.4534 48.2865 21.1167 48.7076 21.7911 48.5561Z" fill="#31374C"/>
<path d="M21.9324 47.0776C22.1241 47.03 22.2419 46.8323 22.1954 46.6362C22.1489 46.44 21.9558 46.3197 21.7641 46.3673C21.5724 46.415 21.4547 46.6126 21.5012 46.8088C21.5477 47.0049 21.7408 47.1253 21.9324 47.0776Z" fill="white"/>
<path d="M14.5249 39.8071C15.6322 38.1611 17.0252 36.8443 20.0256 36.4054C21.5973 36.3688 23.2404 36.1859 21.6687 34.7228C18.9898 32.5281 13.0961 36.2225 12.8818 40.6118C12.5961 42.5139 13.9177 41.0142 14.5249 39.8071Z" fill="#2B2E3A"/>
<path d="M44.3857 34.1007C42.8855 32.7839 41.2067 31.9061 38.2063 32.2719C36.6704 32.6376 35.063 32.9302 36.206 31.1014C38.242 28.2484 44.85 30.2967 46.1716 34.4299C46.9574 36.2222 45.3144 35.1249 44.3857 34.1007Z" fill="#2B2E3A"/>
<path opacity="0.6" d="M32.2419 35.749C32.2419 35.749 29.9559 39.1507 24.7052 39.7726C24.7052 39.7726 29.9916 47.4904 27.3841 58.2077C27.3841 58.2077 33.1349 60.8047 37.314 55.5375C37.2783 55.5375 31.9919 46.4663 32.2419 35.749Z" fill="url(#paint0_linear)"/>
<path d="M58.1379 52.4272C54.4231 46.4285 55.9233 39.9177 51.9227 33.5898C48.9224 28.9079 48.2794 20.422 50.0296 17.4958C50.0296 17.4958 60.4239 13.9477 60.9954 14.2769C64.3887 16.2521 68.9964 26.6035 67.1748 47.6722L58.1379 52.4272Z" fill="#2B2E3A"/>
<path d="M58.8513 49.6834C58.8513 49.6834 59.8515 43.6481 65.0307 45.3672C70.21 47.1229 70.7815 62.449 59.0656 59.9251C59.0656 59.9251 57.9941 55.9748 58.8513 49.6834Z" fill="#FAC2A8"/>
<path d="M65.5673 49.246C64.9601 48.9168 64.2457 48.6974 63.5671 48.7339C62.8884 48.7339 62.2455 49.0997 61.8526 49.6484C61.4597 50.197 61.2096 50.8189 61.031 51.4773C60.8524 52.1357 60.781 52.8306 60.7096 53.489L60.4595 53.2696C61.1382 53.1598 61.8168 53.233 62.4241 53.5988C63.0313 53.9279 63.3885 54.5863 63.4599 55.2447C63.5313 55.5739 63.4599 55.9031 63.3885 56.2323C63.2813 56.5615 63.067 56.8176 62.817 57.037C62.3169 57.4394 61.7097 57.6954 61.0667 57.8052C61.674 57.6223 62.2455 57.3297 62.6741 56.8907C62.8884 56.6713 63.067 56.4152 63.1384 56.1592C63.2099 55.8666 63.2456 55.6105 63.1742 55.3179C63.067 54.7327 62.7455 54.2206 62.2455 53.9645C61.7454 53.6719 61.1025 53.6353 60.5667 53.7451L60.3167 53.7816L60.3524 53.5256C60.4238 52.8306 60.531 52.1356 60.7096 51.4407C60.8882 50.7457 61.1739 50.0507 61.6382 49.5021C62.1026 48.9168 62.8527 48.551 63.6028 48.5876C64.3172 48.5145 64.9958 48.8071 65.5673 49.246Z" fill="#DC918B"/>
<path d="M27.3472 58.1696C27.3472 58.1696 33.2051 65.0461 37.277 55.4995C37.277 55.5361 33.348 58.0965 27.3472 58.1696Z" fill="#DC918B"/>
<path d="M6.27398 17.6411C9.66729 13.1421 15.9538 4.21713 24.9907 3.01007C29.4913 2.49798 29.9557 3.52216 29.9557 3.52216C29.4913 2.86376 27.7411 0.595947 27.7411 0.595947C35.2778 3.04665 59.9954 -5.00043 60.9598 14.3126C62.46 15.5562 63.3887 16.5804 63.4958 17.0925C64.0316 19.5432 50.9227 33.0769 50.9942 26.8221C51.2799 21.5183 51.6014 20.8234 49.4583 19.726C45.5649 17.7143 39.4927 18.4092 26.3123 24.5909C20.133 27.4805 8.63144 31.9064 -1.0127 23.1278C-1.0127 23.0912 2.88068 22.1402 6.27398 17.6411Z" fill="#2B2E3A"/>
<path d="M25.5259 65.3043C31.9196 69.2181 29.2049 75.1803 37.5989 74.0829C45.5642 72.1809 47.1002 58.3911 47.1002 58.3911C35.9558 68.8157 25.5259 65.3043 25.5259 65.3043Z" fill="#31374C"/>
<path d="M44.0296 68.4121C37.8145 69.3997 34.9212 71.887 33.5996 73.9353C34.564 74.2645 35.8499 74.3377 37.6001 74.1182C40.5291 73.3867 42.6008 71.0823 44.0296 68.4121Z" fill="#F97A7A"/>
<path d="M25.5259 65.3043C26.8832 66.109 27.8119 67.0234 28.5263 67.9379C28.8477 68.3402 39.8849 67.9013 46.1714 62.8536C46.8501 60.3297 47.0644 58.3911 47.0644 58.3911C35.9558 68.8157 25.5259 65.3043 25.5259 65.3043Z" fill="white"/>
<path d="M26.3476 65.8533C26.6333 66.0362 26.8834 66.2557 27.1334 66.4751C27.3834 66.6946 27.6335 66.9141 27.8835 67.1701C28.1335 67.4261 28.3478 67.6822 28.5621 67.9382C29.4194 68.999 30.0623 70.206 30.7767 71.3399C31.1339 71.9252 31.5268 72.4738 31.9912 72.9128C32.2412 73.1322 32.4912 73.3151 32.777 73.498C33.0627 73.6443 33.3485 73.7906 33.67 73.8638C33.8128 73.9004 33.9914 73.937 34.1343 73.9735C34.2772 74.0101 34.4558 74.0467 34.5987 74.0467C34.9201 74.0833 35.2416 74.1198 35.5631 74.1198C35.8845 74.1198 36.206 74.1198 36.5632 74.0833C36.8847 74.0833 37.2061 74.0101 37.5276 73.9735C39.0278 73.6078 40.4209 72.7299 41.5281 71.596C42.6354 70.4621 43.4927 69.1087 44.2071 67.6456C44.9214 66.2191 45.4572 64.6828 45.8859 63.1466C46.1002 62.3784 46.3145 61.5737 46.4574 60.8056C46.636 60.0009 46.7788 59.2328 46.886 58.4281L47.1717 58.5744L46.0645 59.562C45.6715 59.8912 45.3144 60.2204 44.9214 60.513C44.5285 60.8056 44.1356 61.1348 43.707 61.3908C43.3141 61.6835 42.8855 61.9761 42.4568 62.2321C42.0282 62.4882 41.5996 62.7442 41.171 63.0003C40.7423 63.2563 40.278 63.4758 39.8493 63.6952C39.385 63.9147 38.9564 64.0976 38.492 64.2805C38.0277 64.4634 37.5633 64.6462 37.099 64.7926C36.6346 64.9389 36.1703 65.0852 35.6702 65.2315C35.2059 65.3778 34.7058 65.4875 34.2415 65.5607C33.7414 65.6704 33.2771 65.7436 32.777 65.8167C32.2769 65.8899 31.8126 65.9265 31.3125 65.963C30.3124 65.9996 29.348 65.9996 28.3478 65.9265C27.3834 65.8167 26.3833 65.6704 25.4546 65.3778C25.7761 65.4875 26.0975 65.6704 26.3476 65.8533ZM28.4193 65.7801C29.3837 65.8533 30.3838 65.8533 31.3482 65.7436C31.8483 65.707 32.3126 65.6338 32.8127 65.5607C33.3128 65.4875 33.7771 65.4144 34.2415 65.3046C34.7058 65.1949 35.2059 65.0852 35.6702 64.9389C36.1346 64.7926 36.5989 64.6462 37.0633 64.4999C37.5276 64.317 37.992 64.1707 38.4206 63.9513C38.8849 63.7684 39.3136 63.5489 39.7422 63.3295C40.1708 63.11 40.5994 62.8905 41.0281 62.6345C41.4567 62.3784 41.8853 62.159 42.2782 61.8663C42.7069 61.6103 43.0998 61.3177 43.4927 61.0251C43.8856 60.769 44.2785 60.4398 44.6714 60.1472C45.0643 59.8546 45.4215 59.5254 45.8144 59.1962L46.9217 58.2086L47.2789 57.8794L47.2075 58.3549C47.1003 59.1596 46.9574 59.9643 46.8146 60.769C46.636 61.5737 46.4574 62.3784 46.2431 63.1466C45.8144 64.7194 45.2429 66.2557 44.5285 67.7188C43.8142 69.1819 42.9212 70.5718 41.7782 71.7423C40.6352 72.9128 39.2064 73.8272 37.5991 74.1564C37.2776 74.193 36.9204 74.2296 36.5989 74.2296C36.2774 74.2661 35.9203 74.2661 35.5988 74.2661C35.2773 74.2661 34.9201 74.2296 34.5987 74.193C34.4201 74.193 34.2772 74.1564 34.0986 74.1198C33.92 74.0833 33.7771 74.0467 33.5985 73.9735C33.2771 73.8638 32.9556 73.7175 32.6698 73.5712C32.3841 73.3883 32.0983 73.2054 31.8483 72.9494C31.3482 72.4738 30.9553 71.9252 30.5981 71.3399C30.2409 70.7547 29.9195 70.1695 29.598 69.5842C29.2765 68.999 28.8836 68.4503 28.4907 67.9016C28.2764 67.6456 28.0621 67.3896 27.8478 67.1335C27.6335 66.8775 27.3834 66.658 27.1334 66.4385C26.8834 66.2191 26.6333 65.9996 26.3476 65.8167C26.0975 65.5973 25.8118 65.4144 25.526 65.2315C26.4547 65.5607 27.4191 65.707 28.4193 65.7801Z" fill="#DC918B"/>
<path d="M44.7423 58.3905C44.7423 58.3905 45.0638 58.2442 45.4924 58.171C45.5996 58.1344 45.7424 58.1344 45.8496 58.0979C45.9925 58.0613 46.1354 58.0979 46.2425 58.0613C46.3854 58.0613 46.5283 58.0613 46.6711 58.0979C46.7426 58.0979 46.814 58.1344 46.8855 58.1344L47.0998 58.2076C47.2426 58.2442 47.3498 58.3173 47.4927 58.3905C47.5998 58.4637 47.7427 58.5734 47.8499 58.6465C47.957 58.7563 48.0642 58.8294 48.1713 58.9392C48.2428 59.0489 48.3499 59.1221 48.4214 59.2318C48.4928 59.305 48.5643 59.4147 48.6357 59.4879C48.7071 59.561 48.7428 59.6342 48.7786 59.7073C48.85 59.8171 48.9214 59.8902 48.9214 59.8902C48.9214 59.8902 48.8857 59.8171 48.85 59.6708C48.7786 59.5244 48.7428 59.3415 48.6 59.1221C48.5285 59.0123 48.4571 58.9026 48.3857 58.7563C48.2785 58.6465 48.2071 58.5368 48.0999 58.3905C47.9927 58.2808 47.8499 58.171 47.707 58.0613C47.5641 57.9881 47.4212 57.8784 47.2426 57.8418L46.9926 57.7687C46.9212 57.7321 46.814 57.7321 46.7426 57.7321C46.564 57.6955 46.4211 57.7321 46.2425 57.7321C46.0996 57.7687 45.921 57.7687 45.7782 57.8052C45.6353 57.8418 45.5281 57.8784 45.3852 57.9516C44.9923 58.1344 44.7423 58.3905 44.7423 58.3905Z" fill="#DC918B"/>
<path d="M38.3487 14.2743C38.3487 14.2743 40.1704 18.2247 35.1698 22.4677C29.5262 27.2228 22.3109 27.8811 22.3109 27.8811C22.3109 27.8811 25.5971 25.3939 24.9898 22.6871C24.0969 18.7002 31.2407 12.1162 31.2407 12.1162L38.3487 14.2743Z" fill="#2B2E3A"/>
<path d="M21.9541 3.74194C21.9541 3.74194 19.5609 4.43691 10.524 10.1064C6.73782 12.4839 3.91601 8.53358 3.91601 8.53358C3.91601 8.53358 1.48712 18.2631 10.6312 17.239C19.7753 16.1782 21.9541 3.74194 21.9541 3.74194Z" fill="#2B2E3A"/>
<path d="M51.1727 82.128C51.1727 82.128 46.8507 84.5055 44.3504 84.6884C41.85 84.8713 42.3501 90.9432 42.1715 92.5892C42.1715 92.5892 47.9937 91.7479 50.2083 90.0287C52.4229 88.3096 53.2087 86.9562 53.2087 86.9562C53.2087 86.9562 53.4944 83.4082 53.1372 81.9451C53.0301 81.5793 51.137 80.5552 51.137 80.5552L51.1727 82.128Z" fill="#31374C"/>
<path d="M40.1358 84.0281C40.1358 84.0281 39.5643 84.2841 39.1714 84.8328C38.7785 85.3815 39.6715 89.0759 39.5286 89.9903C39.3857 90.9048 41.4575 92.4044 41.4575 92.4044L41.9575 91.9655L41.6718 85.8204C41.6718 85.4181 41.386 85.0523 40.9931 84.9426L40.9574 83.8452L40.1358 84.0281Z" fill="#31374C"/>
<path d="M42.4924 92.4439L42.2781 92.3707V91.8587L41.7423 91.6758L41.4923 92.0781L41.2423 92.0416L40.385 94.1265C40.2778 94.3825 40.4207 94.6751 40.6707 94.7483L41.4209 95.0043C41.6709 95.0775 41.9566 94.9312 42.0281 94.6385L42.4924 92.4439Z" fill="#E1E4F4"/>
<path d="M49.245 100.929C49.1378 100.929 49.0664 100.966 48.9949 101.075L47.9591 102.356L47.6733 101.039C47.6376 100.893 47.5662 100.856 47.4947 100.856C47.3876 100.856 47.3161 100.893 47.2447 101.002L46.2803 102.685L46.7446 102.721L47.3876 101.551L47.6733 102.795L48.0662 102.831L48.9949 101.697L48.9235 102.904L49.3164 102.941L49.4236 101.258C49.4236 101.039 49.3164 100.966 49.245 100.929Z" fill="white"/>
<path d="M45.7794 101.039L45.2793 102.612H45.7079L46.208 101.039H45.7794Z" fill="white"/>
<path d="M44.9941 101.441C45.0298 101.221 44.9226 100.965 44.494 100.965L43.6725 100.892L43.2081 102.465L43.6368 102.501L43.8153 101.916H44.0297L44.3869 102.538L44.8512 102.574L44.4583 101.916C44.8155 101.843 44.9584 101.623 44.9941 101.441ZM44.1725 101.66L43.8511 101.623L43.9939 101.148L44.3154 101.184C44.494 101.184 44.5654 101.294 44.5297 101.441C44.5297 101.587 44.3869 101.66 44.1725 101.66Z" fill="white"/>
<path d="M51.1022 102.977L51.5308 103.014L51.245 101.514C51.2093 101.331 51.1022 101.294 50.995 101.294C50.9236 101.294 50.8521 101.331 50.7807 101.404L49.6377 102.867L50.0663 102.904L50.2806 102.575L51.0307 102.611L51.1022 102.977ZM50.4592 102.355L50.8879 101.807L50.995 102.392L50.4592 102.355Z" fill="white"/>
<path d="M52.8515 102.795C52.4943 102.758 52.3157 102.539 52.3514 102.283C52.4229 101.953 52.7443 101.734 53.173 101.771C53.3158 101.771 53.4587 101.807 53.6016 101.844L53.7087 101.514C53.6016 101.478 53.3873 101.441 53.2444 101.441C52.4943 101.405 52.0299 101.697 51.9228 102.209C51.8514 102.685 52.1371 103.014 52.8158 103.051C52.9586 103.051 53.0658 103.051 53.2444 103.051L53.3516 102.722C53.173 102.795 53.0301 102.831 52.8515 102.795Z" fill="white"/>
<path d="M34.9196 117.057C34.9196 117.057 34.2409 116.435 34.1695 115.923C34.098 115.411 34.5981 114.606 34.5981 114.606C34.5981 114.606 34.1695 113.984 34.3838 113.216C34.5981 112.411 35.0982 112.082 35.0982 112.082C35.0982 112.082 34.4552 111.46 34.6695 110.729C34.8838 109.961 35.7054 109.705 36.7769 109.851C36.7769 109.851 42.7777 109.961 43.5636 110.656C44.6708 111.607 46.0996 114.387 46.0996 114.387C47.0997 115.338 46.7783 119.617 46.7783 119.617L44.0636 119.251C43.2421 120.129 37.5985 120.056 37.0627 119.8C35.884 119.288 35.5982 119.215 34.8481 118.556C34.3481 118.081 34.9196 117.057 34.9196 117.057Z" fill="#FAC2A8"/>
<path d="M40.9203 105.28C40.8489 106.267 41.2418 106.779 42.3491 109.01C42.8134 109.961 44.0993 109.486 45.4566 113.107C45.8138 114.095 39.2415 111.315 39.6344 110.912C40.4203 110.035 38.5986 108.389 38.6343 106.377C38.6343 104.621 41.0632 103.048 40.9203 105.28Z" fill="#FAC2A8"/>
<path d="M36.0979 109.888C36.0979 109.888 39.2769 109.632 39.8127 110.803C40.3485 111.937 39.8484 112.522 39.2055 112.595C39.2055 112.595 39.7055 112.997 39.5984 113.839C39.4912 114.68 38.7768 114.79 38.0267 114.899C37.2766 115.009 35.2764 114.68 35.2764 114.68L36.0979 109.888Z" fill="#FAC2A8"/>
<path d="M45.6011 113.182L50.1732 113.986L49.4231 120.278L44.9939 119.583L45.6011 113.182Z" fill="#EF3F54"/>
<path d="M48.9216 113.766C50.136 110.803 54.7081 112.705 57.0298 112.303C56.1368 108.718 55.7439 104.987 55.7439 104.987L54.0651 101.366C54.2437 93.0265 56.5655 89.515 59.7087 88.8201C59.7087 88.8201 63.2449 90.2466 64.3165 95.404C64.6379 96.9769 67.9598 118.814 64.4236 121.959C61.2446 124.776 51.4576 124.154 48.5287 121.191L48.9216 113.766Z" fill="#BD1A3B"/>
<path d="M48.9211 113.766C49.064 113.4 49.2426 113.071 49.5284 112.815C49.8141 112.559 50.1356 112.376 50.4928 112.23C51.2072 111.974 51.9573 111.937 52.6716 111.937C53.4217 111.974 54.1361 112.047 54.8505 112.083C55.5649 112.157 56.315 112.193 56.9936 112.083L56.8508 112.303C56.5293 111.096 56.2793 109.889 56.0649 108.645C55.8506 107.438 55.672 106.194 55.5292 104.951L55.5649 105.06C54.9934 103.853 54.4219 102.61 53.8861 101.403L53.8504 101.366V101.33C53.8861 100.086 53.9575 98.8423 54.1361 97.5987C54.279 96.355 54.529 95.148 54.9219 93.9409C55.0291 93.6483 55.1363 93.3557 55.2434 93.0631C55.3506 92.7704 55.4934 92.4778 55.6363 92.2218C55.7792 91.9292 55.9221 91.6731 56.1007 91.4171C56.2793 91.161 56.4579 90.905 56.6722 90.6855C57.0651 90.21 57.5294 89.8077 58.0652 89.4785C58.601 89.1493 59.1725 88.9298 59.7797 88.8201C59.2082 88.9664 58.6367 89.2224 58.1367 89.5516C57.6366 89.9174 57.208 90.3197 56.8508 90.7953C56.1007 91.7463 55.6363 92.9168 55.2791 94.0507C54.9219 95.2211 54.7433 96.4282 54.6005 97.6718C54.4576 98.8789 54.3862 100.123 54.3504 101.366L54.3147 101.256C54.8862 102.463 55.422 103.634 55.9578 104.841L55.9935 104.914V104.951C56.1364 106.158 56.315 107.401 56.4936 108.608C56.7079 109.816 56.9579 111.023 57.208 112.23L57.2437 112.413L57.0651 112.449C56.315 112.559 55.5649 112.486 54.8505 112.376C54.1361 112.303 53.386 112.193 52.6716 112.157C51.9573 112.12 51.2072 112.12 50.5285 112.303C49.8141 112.595 49.2069 113.071 48.9211 113.766Z" fill="#E0363C"/>
<path d="M64.4595 121.962C63.9595 122.437 63.3165 122.803 62.6736 123.059C62.0306 123.352 61.3163 123.535 60.6376 123.644C59.2446 123.9 57.8158 124.01 56.4228 123.937C55.0297 123.864 53.601 123.681 52.2436 123.279C51.565 123.096 50.8863 122.84 50.2434 122.51C49.6004 122.181 48.9932 121.816 48.4574 121.267L48.386 121.194V121.121C48.4217 120.499 48.4574 119.877 48.4931 119.255L48.636 117.39C48.6717 116.768 48.7432 116.146 48.7789 115.524C48.8146 114.902 48.8861 114.281 48.9218 113.659C48.9218 114.281 48.9218 114.902 48.8861 115.524C48.8861 116.146 48.8861 116.768 48.8503 117.39L48.8146 119.255C48.7789 119.877 48.7789 120.499 48.7432 121.121L48.6717 120.974C49.6719 121.925 50.9935 122.437 52.3151 122.803C53.6367 123.169 55.0297 123.388 56.4228 123.461C57.8158 123.535 59.2088 123.535 60.5662 123.315C61.9592 123.205 63.3165 122.84 64.4595 121.962Z" fill="#E0363C"/>
<defs>
<linearGradient id="paint0_linear" x1="29.5457" y1="36.1081" x2="32.5077" y2="58.6765" gradientUnits="userSpaceOnUse">
<stop stop-color="#FAC2A8"/>
<stop offset="0.2651" stop-color="#F7BCA5"/>
<stop offset="0.6038" stop-color="#EDAD9B"/>
<stop offset="0.981" stop-color="#DD938C"/>
<stop offset="1" stop-color="#DC918B"/>
</linearGradient>
</defs>
</svg>
